PathFileType	4	(X/Y/Z)	F:\MotionCapture\20160217\3\Generated_files\EMG_Fprce_test04-Dynamic.trc
DataRate	CameraRate	NumFrames	NumMarkers	Units	OrigDataRate	OrigDataStartFrame	OrigNumFrames
120.00	120.00	       5	39	mm	120.00	496	       566
Frame#	Time	Top.Head			Front.Head			Rear.Head			R.Shoulder			R.Offset			R.Elbow			R.Wrist			L.Shoulder			L.Elbow			L.Wrist			R.ASIS			L.ASIS			V.Sacral			R.Thigh			R.Knee			R.Shank			R.Ankle			R.Heel			R.Toe			L.Thigh			L.Knee			L.Shank			L.Ankle			L.Heel			L.Toe			R1			R2			R3			R4			R5			R6			R7			L1			L2			L3			L4			L5			L6			L7			V_Mid_ASIS			V_Pelvis_Origin			V_R.Hip_JC			V_L.Hip_JC			V_R.Knee_JC			V_L.Knee_JC			V_R.Ankle_JC			V_L.Ankle_JC			V_Mid_Hip			V_Mid_Shoulder			V_R.Hand			V_L.Hand			V_R.Toe_Offset_Static			V_L.Toe_Offset_Static			V_R.Toe_Offset			V_L.Toe_Offset			
		X1	Y1	Z1	X2	Y2	Z2	X3	Y3	Z3	X4	Y4	Z4	X5	Y5	Z5	X6	Y6	Z6	X7	Y7	Z7	X8	Y8	Z8	X9	Y9	Z9	X10	Y10	Z10	X11	Y11	Z11	X12	Y12	Z12	X13	Y13	Z13	X14	Y14	Z14	X15	Y15	Z15	X16	Y16	Z16	X17	Y17	Z17	X18	Y18	Z18	X19	Y19	Z19	X20	Y20	Z20	X21	Y21	Z21	X22	Y22	Z22	X23	Y23	Z23	X24	Y24	Z24	X25	Y25	Z25	X26	Y26	Z26	X27	Y27	Z27	X28	Y28	Z28	X29	Y29	Z29	X30	Y30	Z30	X31	Y31	Z31	X32	Y32	Z32	X33	Y33	Z33	X34	Y34	Z34	X35	Y35	Z35	X36	Y36	Z36	X37	Y37	Z37	X38	Y38	Z38	X39	Y39	Z39	

496	4.125	-2964.80884	281.39618	1710.01355	-3078.92944	261.20273	1633.39624	-2860.35962	281.13962	1634.17578	-2909.73730	462.30972	1405.09949	-2802.59570	188.81992	1257.31372	-2916.12183	593.30627	1090.48560	-3160.87573	578.39862	998.95508	-2958.90503	57.84544	1406.35986	-2872.11206	-60.85028	1107.93677	-2898.87354	-94.77775	850.79486	-2983.05713	415.32217	927.45575	-3033.90186	129.62408	927.75061	-2788.52344	227.58289	924.84338	-2967.70166	348.89417	543.76392	-2869.62671	372.21411	446.64255	-2816.43481	282.67865	223.05496	-2719.79980	336.26093	71.28709	-2654.34521	269.21585	50.95962	-2862.57446	330.91998	35.85822	-3169.22437	163.25046	656.10571	-3147.50366	110.24421	479.14636	-3204.56982	185.81995	352.60483	-3180.21753	110.61469	82.94278	-3161.15479	188.75223	40.33868	-3343.72437	142.94637	90.24415	-2910.64600	314.45804	29.51587	-2870.96997	293.21075	41.38271	-2776.74219	251.20952	50.43176	-2703.25488	244.34686	45.01457	-2684.87939	314.18317	47.70558	-2753.73096	349.62137	34.56164	-2818.16992	371.29364	32.21760							-3278.20947	213.86736	85.40969	-3201.13794	217.16443	55.00631				-3268.07788	114.48949	58.98620	-3319.84253	106.79069	78.52976																																																	-2818.54224	362.88022	11.45894	-3245.90308	44.33023	231.62572	-2868.55151	381.20175	-33.63069	
497	4.133	-2975.84180	280.91681	1706.93665	-3089.74243	259.57919	1630.58765	-2871.62524	281.05164	1631.61646	-2920.55957	462.26346	1402.09485	-2813.33350	187.36269	1255.00500	-2929.21069	592.54559	1087.84961	-3175.94629	578.26385	1000.48792	-2969.40601	57.24634	1403.94263	-2879.66602	-60.97766	1106.39478	-2902.17773	-96.25718	849.26514	-2993.60889	415.53302	924.75079	-3046.46143	130.07541	924.98169	-2800.18286	226.76030	922.19983	-2975.51660	350.63855	541.45996	-2875.91235	372.73792	445.39435	-2819.72925	282.87997	222.32600	-2719.24634	337.36017	72.47850	-2654.86597	267.84412	52.41247	-2862.57324	331.18393	35.80967	-3179.98169	164.31433	650.83197				-3220.47998	187.42387	352.71173	-3232.01318	127.10252	78.91268	-3188.54297	190.04372	39.39484				-2911.37305	314.77374	29.87197	-2871.11987	293.35721	41.39559	-2777.55176	250.89781	50.76474	-2704.08081	243.06462	46.77431	-2681.94727	313.78220	50.07317	-2753.81885	349.36508	34.82679	-2817.95093	371.06726	32.28138	-3266.81006	31.97923	243.55783				-3304.37695	215.25113	88.43958	-3227.51221	219.09160	55.37874	-3212.00732	149.47151	45.86849	-3291.89966	117.30796	58.40878	-3347.52930	109.21378	81.56137																																																	-2868.78955	381.53079	-33.68157	-3378.27930	137.13092	99.99741	
498	4.142	-2986.72778	281.19394	1704.25964	-3100.81641	258.59766	1628.06531	-2882.95410	281.31961	1629.39453	-2931.98315	461.31564	1400.11072	-2824.43970	187.97560	1252.07117	-2942.55273	592.01324	1084.97058	-3190.08203	576.92889	1001.49170	-2980.11475	56.99141	1401.39343	-2887.62573	-61.87581	1105.27893	-2905.74341	-97.68112	847.75354	-3004.19678	415.96466	923.05988	-3058.73584	130.84851	922.14966	-2812.02637	225.97620	919.63153	-2983.45142	352.17480	538.97937	-2882.22241	374.15372	445.08588	-2823.32153	283.05887	221.91614	-2720.14771	336.41193	73.51410	-2655.90698	266.03583	54.69790	-2862.57788	331.29462	35.81697	-3189.23584	166.64148	645.98810	-3169.45654	114.14813	474.29422	-3235.33130	188.97925	352.69360	-3256.78052	128.37851	80.02328	-3215.94336	189.58734	37.40073	-3402.49414	138.97745	104.97366	-2911.56714	314.98770	29.81417	-2871.29907	293.43625	41.45500	-2778.88330	249.80446	52.01941	-2705.12134	242.11522	48.23143	-2682.20972	312.82562	50.96369	-2753.75903	348.95947	35.04021	-2817.64624	370.92734	32.30775							-3327.92017	214.63300	91.05794	-3254.15503	220.27927	56.22179	-3236.87769	150.56847	46.70285				-3373.06860	109.15314	85.62913																																																	-2811.31348	-139.56815	247.33177	-2700.90527	326.39825	60.61197	-2869.13281	381.89136	-33.53137	-3356.71216	-29.58885	287.61551	
499	4.150	-2998.30054	280.45261	1702.13293	-3111.66724	258.83392	1625.53394	-2893.76074	280.50067	1626.97424	-2943.08057	461.36581	1396.98438	-2835.67090	187.56316	1249.32715	-2955.63354	591.36987	1082.57568	-3204.28760	576.52362	1002.47864	-2990.27295	56.51721	1399.09021	-2895.69116	-62.14636	1103.89490	-2910.36548	-99.15443	846.41528	-3014.92188	416.66986	921.67914	-3070.83887	131.73648	919.48212	-2823.84253	223.74838	916.75769	-2991.70093	354.57538	536.96228	-2887.99951	373.61798	443.12363	-2826.84619	283.32751	221.15501				-2656.67896	265.09146	56.43498	-2862.56470	331.51886	35.73245	-3199.03345	168.85852	641.35718	-3180.59204	116.12093	472.21933	-3250.15674	190.22154	353.04550				-3240.45483	192.48120	37.58092	-3410.28174	137.42542	115.11896	-2911.78491	315.25735	29.77282	-2871.57422	293.56247	41.47279	-2778.98145	250.79010	51.64789	-2706.19312	240.95161	49.92707	-2682.51440	311.28680	53.24514	-2753.63477	348.46875	35.39188	-2817.30640	370.59711	32.47461	-3463.50806	161.19212	129.96376	-3421.24268	173.18153	124.43544	-3350.96021	216.79356	94.81834	-3277.55713	222.16258	57.30561				-3342.01367	119.92586	62.85712	-3394.91968	112.69320	88.67043																																																	-3453.46582	184.24887	114.40604	-2869.31030	382.13174	-33.48874	-2974.26245	18.59549	131.86377	-3231.59180	167.81529	58.78214	-3306.52686	26.31046	260.04910	
500	4.158	-3011.62524	280.82831	1700.27734	-3122.43140	256.07571	1623.02454	-2904.77124	279.76520	1624.74084	-2954.64404	460.53995	1395.27673	-2847.05859	187.89946	1246.55396	-2968.40381	590.19476	1079.42676	-3218.08472	575.47479	1002.36176	-3000.57227	56.07533	1396.82629	-2903.77100	-62.43618	1102.54895	-2915.07788	-100.29236	844.89563				-3083.21289	132.30305	916.88788	-2835.83618	223.04619	914.21637	-2999.92676	356.30664	534.65051	-2895.18066	375.34320	442.64050	-2830.84009	283.55649	220.76180	-2721.99756	333.74475	75.99969	-2657.50098	264.02383	58.68711	-2862.58179	331.55774	35.61916	-3208.24146	171.96396	637.68134	-3193.03125	116.46828	470.84857	-3264.33276	191.77623	352.84723	-3304.38208	133.96466	82.28023	-3262.44629	195.66693	37.63276	-3432.98950	153.54013	104.80817	-2911.94336	315.36981	29.71033	-2871.89771	293.67480	41.40554	-2780.75537	249.28781	53.74148	-2707.06958	240.77473	50.94296	-2682.86792	310.76880	54.49715	-2753.53076	347.20679	35.53253	-2816.73315	370.61871	32.21650				-3453.29346	176.05092	124.02496	-3372.59521	217.62920	97.07733	-3299.14624	224.17677	57.82331				-3363.11475	122.24376	64.67786	-3416.51245	111.80819	91.68455																																																	-2869.67700	382.30588	-33.37513	-3252.47192	169.47586	59.28821	-3322.77710	16.31157	269.57858	
